{
  "accessors": [
    {
      "bufferView": 2,
      "componentType": 5126,
      "count": 10240,
      "max": [
        7140.55322265625,
        48.03961944580078,
        1685.8304443359375
      ],
      "min": [
        -5838.36181640625,
        -7.849959850311279,
        -5600.51806640625
      ],
      "type": "VEC3"
    },
    {
      "bufferView": 2,
      "byteOffset": 122880,
      "componentType": 5126,
      "count": 10240,
      "max": [
        0.9999393820762634,
        0.01058046892285347,
        0.9999439716339111
      ],
      "min": [
        -0.9999439716339111,
        -0.010556373745203018,
        -0.999944269657135
      ],
      "type": "VEC3"
    },
    {
      "bufferView": 1,
      "componentType": 5126,
      "count": 10240,
      "max": [
        2.313603401184082,
        0.6493616700172424
      ],
      "min": [
        -2.175351142883301,
        0.35063856840133667
      ],
      "type": "VEC2"
    },
    {
      "bufferView": 0,
      "componentType": 5125,
      "count": 15360,
      "type": "SCALAR"
    },
    {
      "bufferView": 2,
      "byteOffset": 245760,
      "componentType": 5126,
      "count": 5120,
      "max": [
        7140.55322265625,
        48.03961944580078,
        1685.8304443359375
      ],
      "min": [
        -5838.36181640625,
        32.337974548339844,
        -5600.51806640625
      ],
      "type": "VEC3"
    },
    {
      "bufferView": 2,
      "byteOffset": 307200,
      "componentType": 5126,
      "count": 5120,
      "max": [
        0.010731258429586887,
        0.9999231100082397,
        0.03999590128660202
      ],
      "min": [
        -0.11200182139873505,
        -0.9999446868896484,
        -0.014747698791325092
      ],
      "type": "VEC3"
    },
    {
      "bufferView": 1,
      "byteOffset": 81920,
      "componentType": 5126,
      "count": 5120,
      "max": [
        1.6251916885375977,
        1.6993544101715088
      ],
      "min": [
        -0.6251917481422424,
        -0.6993544697761536
      ],
      "type": "VEC2"
    },
    {
      "bufferView": 0,
      "byteOffset": 61440,
      "componentType": 5125,
      "count": 7680,
      "type": "SCALAR"
    },
    {
      "bufferView": 2,
      "byteOffset": 368640,
      "componentType": 5126,
      "count": 2560,
      "max": [
        6821.8759765625,
        4.493054389953613,
        1366.6162109375
      ],
      "min": [
        -5519.0595703125,
        -4.491337299346924,
        -5281.28125
      ],
      "type": "VEC3"
    },
    {
      "bufferView": 2,
      "byteOffset": 399360,
      "componentType": 5126,
      "count": 2560,
      "max": [
        0.010634883306920528,
        0.9999446272850037,
        0.010575033724308014
      ],
      "min": [
        -0.01056414283812046,
        0.9999422430992126,
        -0.010599953122437
      ],
      "type": "VEC3"
    },
    {
      "bufferView": 1,
      "byteOffset": 122880,
      "componentType": 5126,
      "count": 2560,
      "max": [
        1.0451624393463135,
        0.994850218296051
      ],
      "min": [
        -0.04516243934631348,
        -0.007553577423095703
      ],
      "type": "VEC2"
    },
    {
      "bufferView": 1,
      "byteOffset": 143360,
      "componentType": 5126,
      "count": 2560,
      "max": [
        1.0451624393463135,
        0.994850218296051
      ],
      "min": [
        -0.04516243934631348,
        -0.007553577423095703
      ],
      "type": "VEC2"
    },
    {
      "bufferView": 0,
      "byteOffset": 92160,
      "componentType": 5125,
      "count": 3840,
      "type": "SCALAR"
    }
  ],
  "asset": {
    "extras": {
      "author": "BOOBALAN (https://sketchfab.com/BOOBROS)",
      "license": "CC-BY-4.0 (http://creativecommons.org/licenses/by/4.0/)",
      "source": "https://sketchfab.com/3d-models/highway-road-3003f1420891496fb13eb142cfd5e84e",
      "title": "HighWay Road"
    },
    "generator": "Sketchfab-13.84.0",
    "version": "2.0"
  },
  "bufferViews": [
    {
      "buffer": 0,
      "byteLength": 107520,
      "name": "floatBufferViews",
      "target": 34963
    },
    {
      "buffer": 0,
      "byteLength": 163840,
      "byteOffset": 107520,
      "byteStride": 8,
      "name": "floatBufferViews",
      "target": 34962
    },
    {
      "buffer": 0,
      "byteLength": 430080,
      "byteOffset": 271360,
      "byteStride": 12,
      "name": "floatBufferViews",
      "target": 34962
    }
  ],
  "buffers": [
    {
      "byteLength": 701440,
      "uri": "scene.bin"
    }
  ],
  "images": [
    {
      "uri": "textures/Material.003_baseColor.jpeg"
    },
    {
      "uri": "textures/Material.002_baseColor.jpeg"
    },
    {
      "uri": "textures/Material.001_baseColor.jpeg"
    }
  ],
  "materials": [
    {
      "doubleSided": true,
      "name": "Material.003",
      "pbrMetallicRoughness": {
        "baseColorTexture": {
          "index": 0
        },
        "metallicFactor": 0.0,
        "roughnessFactor": 0.8211145618000169
      }
    },
    {
      "doubleSided": true,
      "name": "Material.002",
      "pbrMetallicRoughness": {
        "baseColorTexture": {
          "index": 1
        },
        "metallicFactor": 0.0,
        "roughnessFactor": 0.8211145618000169
      }
    },
    {
      "doubleSided": true,
      "name": "Material.001",
      "pbrMetallicRoughness": {
        "baseColorTexture": {
          "index": 2
        },
        "metallicFactor": 0.0
      }
    }
  ],
  "meshes": [
    {
      "name": "Plane_Material.003_0",
      "primitives": [
        {
          "attributes": {
            "NORMAL": 1,
            "POSITION": 0,
            "TEXCOORD_0": 2
          },
          "indices": 3,
          "material": 0,
          "mode": 4
        }
      ]
    },
    {
      "name": "Plane_Material.002_0",
      "primitives": [
        {
          "attributes": {
            "NORMAL": 5,
            "POSITION": 4,
            "TEXCOORD_0": 6
          },
          "indices": 7,
          "material": 1,
          "mode": 4
        }
      ]
    },
    {
      "name": "Plane_Material.001_0",
      "primitives": [
        {
          "attributes": {
            "NORMAL": 9,
            "POSITION": 8,
            "TEXCOORD_0": 10,
            "TEXCOORD_1": 11
          },
          "indices": 12,
          "material": 2,
          "mode": 4
        }
      ]
    }
  ],
  "nodes": [
    {
      "children": [
        1
      ],
      "matrix": [
        1.0,
        0.0,
        0.0,
        0.0,
        0.0,
        2.220446049250313e-16,
        -1.0,
        0.0,
        0.0,
        1.0,
        2.220446049250313e-16,
        0.0,
        0.0,
        0.0,
        0.0,
        1.0
      ],
      "name": "Sketchfab_model"
    },
    {
      "children": [
        2
      ],
      "matrix": [
        0.009999999776482582,
        0.0,
        0.0,
        0.0,
        0.0,
        0.0,
        0.009999999776482582,
        0.0,
        0.0,
        -0.009999999776482582,
        0.0,
        0.0,
        0.0,
        0.0,
        0.0,
        1.0
      ],
      "name": "6fd2caa36410452f9454b5adfd628a29.fbx"
    },
    {
      "children": [
        3
      ],
      "name": "RootNode"
    },
    {
      "children": [
        4,
        5,
        6
      ],
      "name": "Plane"
    },
    {
      "mesh": 0,
      "name": "Plane_Material.003_0"
    },
    {
      "mesh": 1,
      "name": "Plane_Material.002_0"
    },
    {
      "mesh": 2,
      "name": "Plane_Material.001_0"
    }
  ],
  "samplers": [
    {
      "magFilter": 9729,
      "minFilter": 9987,
      "wrapS": 10497,
      "wrapT": 10497
    }
  ],
  "scene": 0,
  "scenes": [
    {
      "name": "Sketchfab_Scene",
      "nodes": [
        0
      ]
    }
  ],
  "textures": [
    {
      "sampler": 0,
      "source": 0
    },
    {
      "sampler": 0,
      "source": 1
    },
    {
      "sampler": 0,
      "source": 2
    }
  ]
}
